<svg xmlns="http://www.w3.org/2000/svg" viewBox="0 0 720 520" fill="none" stroke="#C9A24B" stroke-width="2.4" stroke-linecap="round"><defs><g id="c"><path d="M0 70H220"/><path d="M20 70a25 25 0 1 1 50 0a14 14 0 1 0-28 0a7 7 0 1 1 14 0"/><path d="M70 70a35 35 0 1 1 70 0a20 20 0 1 0-40 0a10 10 0 1 1 20 0"/><path d="M140 70a24 24 0 1 1 48 0a13 13 0 1 0-26 0"/></g></defs><use href="#c" transform="translate(380 40) scale(1.4)"/><use href="#c" transform="translate(120 170) scale(1)"/><use href="#c" transform="translate(470 250) scale(1.1)"/><use href="#c" transform="translate(260 380) scale(.8)"/><use href="#c" transform="translate(40 20) scale(.7)"/></svg>
